<?xml version="1.0" encoding="utf-8"?>
<!-- Generator: Adobe Illustrator 22.1.0, SVG Export Plug-In . SVG Version: 6.00 Build 0)  -->
<svg version="1.1" id="Capa_1" xmlns="http://www.w3.org/2000/svg" xmlns:xlink="http://www.w3.org/1999/xlink" x="0px" y="0px"
	 width="2399px" height="1200px" viewBox="0 0 2399 1200" style="enable-background:new 0 0 2399 1200;" xml:space="preserve">
<g id="Ñëîé_2">
	<g>
		<rect x="0.4" width="2398.6" height="1200"/>
		<g style="opacity:0.3;">
			<path style="fill:#9A8FD7;" d="M-1,1200h1.4l48.6-48.6l48.6,48.6h2.8l48.6-48.6l48.6,48.6h2.8l48.6-48.6l48.6,48.6h2.8l48.6-48.6
				l48.6,48.6h2.8l48.6-48.6l48.6,48.6h2.8l48.6-48.6l48.6,48.6h2.8l48.6-48.6l48.6,48.6h2.8l48.6-48.6l48.6,48.6h2.8l48.6-48.6
				l48.6,48.6h2.8l48.6-48.6l48.6,48.6h2.8l48.6-48.6l48.6,48.6h2.8l48.6-48.6l48.6,48.6h1.4v-1.4l-48.6-48.6l48.6-48.6V998.6
				l-48.6-48.6l48.6-48.6V798.6l-48.6-48.6l48.6-48.6V598.6l-48.6-48.6l48.6-48.6V398.6l-48.6-48.6l48.6-48.6V198.6l-48.6-48.6
				l48.6-48.6V0h-1.4l0.4,0.4v97.2L1150.4,50l-50-50h-2.8l-50,50L1000,97.6V0.4l0.4-0.4h-2.8l0.4,0.4v97.2L950.4,50l-50-50h-2.8
				l-50,50L800,97.6V0.4l0.4-0.4h-2.8l0.4,0.4v97.2L750.4,50l-50-50h-2.8l-50,50L600,97.6V0.4l0.4-0.4h-2.8l0.4,0.4v97.2L550.4,50
				l-50-50h-2.8l-50,50L400,97.6V0.4l0.4-0.4h-2.8l0.4,0.4v97.2L350.4,50l-50-50h-2.8l-50,50L200,97.6V0.4l0.4-0.4h-2.8l0.4,0.4
				v97.2L150.4,50l-50-50h-2.8l-50,50L0,97.6V0.4L0.4,0H-1v101.4L47.6,150L-1,198.6v102.8L47.6,350L-1,398.6v102.8L47.6,550
				L-1,598.6v102.8L47.6,750L-1,798.6v102.8L47.6,950L-1,998.6v102.8l48.6,48.6L-1,1198.6V1200z M149,351.4l49,49v97.2L150.4,450
				l-50-50L149,351.4z M100,397.6v-97.2l49-49l48.6,48.6l-50,50L100,397.6z M1097.6,400l-50,50l-47.6,47.6v-97.2l49-49L1097.6,400z
				 M1000.4,300l48.6-48.6l49,49v97.2l-47.6-47.6L1000.4,300z M297.6,600l-50,50L200,697.6v-97.2l49-49L297.6,600z M200.4,500
				l48.6-48.6l49,49v97.2L250.4,550L200.4,500z M200,800.4l49-49l48.6,48.6l-50,50L200,897.6V800.4z M199,798.6L150.4,750l48.6-48.6
				l48.6,48.6L199,798.6z M250.4,750l-50-50l48.6-48.6l49,49v97.2L250.4,750z M250.4,650l48.6-48.6l48.6,48.6L299,698.6L250.4,650z
				 M347.6,550L300,597.6v-97.2l49-49l48.6,48.6L347.6,550z M349,551.4l49,49v97.2L350.4,650l-50-50L349,551.4z M300,700.4l49-49
				l48.6,48.6l-50,50L300,797.6V700.4z M349,751.4l49,49v97.2L350.4,850l-50-50L349,751.4z M350.4,750l48.6-48.6l48.6,48.6
				L399,798.6L350.4,750z M497.6,600l-50,50L400,697.6v-97.2l49-49L497.6,600z M400.4,500l48.6-48.6l49,49v97.2L450.4,550L400.4,500
				z M400,800.4l49-49l48.6,48.6l-50,50L400,897.6V800.4z M450.4,750l-50-50l48.6-48.6l49,49v97.2L450.4,750z M450.4,650l48.6-48.6
				l48.6,48.6L499,698.6L450.4,650z M547.6,550L500,597.6v-97.2l49-49l48.6,48.6L547.6,550z M549,551.4l49,49v97.2L550.4,650l-50-50
				L549,551.4z M500,700.4l49-49l48.6,48.6l-50,50L500,797.6V700.4z M549,751.4l49,49v97.2L550.4,850l-50-50L549,751.4z M550.4,750
				l48.6-48.6l48.6,48.6L599,798.6L550.4,750z M697.6,600l-50,50L600,697.6v-97.2l49-49L697.6,600z M600.4,500l48.6-48.6l49,49v97.2
				L650.4,550L600.4,500z M600,800.4l49-49l48.6,48.6l-50,50L600,897.6V800.4z M650.4,750l-50-50l48.6-48.6l49,49v97.2L650.4,750z
				 M650.4,650l48.6-48.6l48.6,48.6L699,698.6L650.4,650z M747.6,550L700,597.6v-97.2l49-49l48.6,48.6L747.6,550z M749,551.4l49,49
				v97.2L750.4,650l-50-50L749,551.4z M700,700.4l49-49l48.6,48.6l-50,50L700,797.6V700.4z M749,751.4l49,49v97.2L750.4,850l-50-50
				L749,751.4z M750.4,750l48.6-48.6l48.6,48.6L799,798.6L750.4,750z M897.6,600l-50,50L800,697.6v-97.2l49-49L897.6,600z
				 M800.4,500l48.6-48.6l49,49v97.2L850.4,550L800.4,500z M800,800.4l49-49l48.6,48.6l-50,50L800,897.6V800.4z M850.4,750l-50-50
				l48.6-48.6l49,49v97.2L850.4,750z M850.4,650l48.6-48.6l48.6,48.6L899,698.6L850.4,650z M947.6,550L900,597.6v-97.2l49-49
				l48.6,48.6L947.6,550z M949,551.4l49,49v97.2L950.4,650l-50-50L949,551.4z M900,700.4l49-49l48.6,48.6l-50,50L900,797.6V700.4z
				 M949,751.4l49,49v97.2L950.4,850l-50-50L949,751.4z M950.4,750l48.6-48.6l48.6,48.6L999,798.6L950.4,750z M1000,800.4l49-49
				l48.6,48.6l-50,50l-47.6,47.6V800.4z M1050.4,750l-50-50l48.6-48.6l49,49v97.2L1050.4,750z M1047.6,650l-47.6,47.6v-97.2l49-49
				l48.6,48.6L1047.6,650z M1050.4,550l-50-50l48.6-48.6l49,49v97.2L1050.4,550z M1047.6,550L999,598.6L950.4,550l48.6-48.6
				L1047.6,550z M998,497.6L950.4,450l-50-50l48.6-48.6l49,49V497.6z M947.6,350L900,397.6v-97.2l49-49l48.6,48.6L947.6,350z
				 M947.6,450L899,498.6L850.4,450l48.6-48.6L947.6,450z M898,397.6L850.4,350l-50-50l48.6-48.6l49,49V397.6z M897.6,400l-50,50
				L800,497.6v-97.2l49-49L897.6,400z M847.6,550L799,598.6L750.4,550l48.6-48.6L847.6,550z M798,497.6L750.4,450l-50-50l48.6-48.6
				l49,49V497.6z M747.6,350L700,397.6v-97.2l49-49l48.6,48.6L747.6,350z M747.6,450L699,498.6L650.4,450l48.6-48.6L747.6,450z
				 M698,397.6L650.4,350l-50-50l48.6-48.6l49,49V397.6z M697.6,400l-50,50L600,497.6v-97.2l49-49L697.6,400z M647.6,550L599,598.6
				L550.4,550l48.6-48.6L647.6,550z M598,497.6L550.4,450l-50-50l48.6-48.6l49,49V497.6z M547.6,350L500,397.6v-97.2l49-49
				l48.6,48.6L547.6,350z M547.6,450L499,498.6L450.4,450l48.6-48.6L547.6,450z M498,397.6L450.4,350l-50-50l48.6-48.6l49,49V397.6z
				 M497.6,400l-50,50L400,497.6v-97.2l49-49L497.6,400z M447.6,550L399,598.6L350.4,550l48.6-48.6L447.6,550z M398,497.6L350.4,450
				l-50-50l48.6-48.6l49,49V497.6z M347.6,350L300,397.6v-97.2l49-49l48.6,48.6L347.6,350z M347.6,450L299,498.6L250.4,450
				l48.6-48.6L347.6,450z M298,397.6L250.4,350l-50-50l48.6-48.6l49,49V397.6z M297.6,400l-50,50L200,497.6v-97.2l49-49L297.6,400z
				 M247.6,550L199,598.6L150.4,550l48.6-48.6L247.6,550z M197.6,500l-50,50L100,597.6v-97.2l49-49L197.6,500z M149,551.4l49,49
				v97.2L150.4,650l-50-50L149,551.4z M197.6,700l-50,50L100,797.6v-97.2l49-49L197.6,700z M149,751.4l49,49v97.2L150.4,850l-50-50
				L149,751.4z M197.6,900l-50,50L100,997.6v-97.2l49-49L197.6,900z M149,951.4l49,49v97.2l-47.6-47.6l-50-50L149,951.4z M150.4,950
				l48.6-48.6l48.6,48.6L199,998.6L150.4,950z M200,1000.4l49-49l48.6,48.6l-50,50l-47.6,47.6V1000.4z M250.4,950l-50-50l48.6-48.6
				l49,49v97.2L250.4,950z M250.4,850l48.6-48.6l48.6,48.6L299,898.6L250.4,850z M300,900.4l49-49l48.6,48.6l-50,50L300,997.6V900.4
				z M349,951.4l49,49v97.2l-47.6-47.6l-50-50L349,951.4z M350.4,950l48.6-48.6l48.6,48.6L399,998.6L350.4,950z M400,1000.4l49-49
				l48.6,48.6l-50,50l-47.6,47.6V1000.4z M450.4,950l-50-50l48.6-48.6l49,49v97.2L450.4,950z M450.4,850l48.6-48.6l48.6,48.6
				L499,898.6L450.4,850z M500,900.4l49-49l48.6,48.6l-50,50L500,997.6V900.4z M549,951.4l49,49v97.2l-47.6-47.6l-50-50L549,951.4z
				 M550.4,950l48.6-48.6l48.6,48.6L599,998.6L550.4,950z M600,1000.4l49-49l48.6,48.6l-50,50l-47.6,47.6V1000.4z M650.4,950l-50-50
				l48.6-48.6l49,49v97.2L650.4,950z M650.4,850l48.6-48.6l48.6,48.6L699,898.6L650.4,850z M700,900.4l49-49l48.6,48.6l-50,50
				L700,997.6V900.4z M749,951.4l49,49v97.2l-47.6-47.6l-50-50L749,951.4z M750.4,950l48.6-48.6l48.6,48.6L799,998.6L750.4,950z
				 M800,1000.4l49-49l48.6,48.6l-50,50l-47.6,47.6V1000.4z M850.4,950l-50-50l48.6-48.6l49,49v97.2L850.4,950z M850.4,850
				l48.6-48.6l48.6,48.6L899,898.6L850.4,850z M900,900.4l49-49l48.6,48.6l-50,50L900,997.6V900.4z M949,951.4l49,49v97.2
				l-47.6-47.6l-50-50L949,951.4z M950.4,950l48.6-48.6l48.6,48.6L999,998.6L950.4,950z M1000,1000.4l49-49l48.6,48.6l-50,50
				l-47.6,47.6V1000.4z M1050.4,950l-50-50l48.6-48.6l49,49v97.2L1050.4,950z M1050.4,850l48.6-48.6l48.6,48.6l-48.6,48.6
				L1050.4,850z M1050.4,650l48.6-48.6l48.6,48.6l-48.6,48.6L1050.4,650z M1050.4,450l48.6-48.6l48.6,48.6l-48.6,48.6L1050.4,450z
				 M1050.4,250l48.6-48.6l48.6,48.6l-48.6,48.6L1050.4,250z M1047.6,250l-47.6,47.6v-97.2l49-49l48.6,48.6L1047.6,250z M1047.6,350
				L999,398.6L950.4,350l48.6-48.6L1047.6,350z M998,297.6L950.4,250l-50-50l48.6-48.6l49,49V297.6z M947.6,250L899,298.6L850.4,250
				l48.6-48.6L947.6,250z M847.6,250L800,297.6v-97.2l49-49l48.6,48.6L847.6,250z M847.6,350L799,398.6L750.4,350l48.6-48.6
				L847.6,350z M798,297.6L750.4,250l-50-50l48.6-48.6l49,49V297.6z M747.6,250L699,298.6L650.4,250l48.6-48.6L747.6,250z
				 M647.6,250L600,297.6v-97.2l49-49l48.6,48.6L647.6,250z M647.6,350L599,398.6L550.4,350l48.6-48.6L647.6,350z M598,297.6
				L550.4,250l-50-50l48.6-48.6l49,49V297.6z M547.6,250L499,298.6L450.4,250l48.6-48.6L547.6,250z M447.6,250L400,297.6v-97.2
				l49-49l48.6,48.6L447.6,250z M447.6,350L399,398.6L350.4,350l48.6-48.6L447.6,350z M398,297.6L350.4,250l-50-50l48.6-48.6l49,49
				V297.6z M347.6,250L299,298.6L250.4,250l48.6-48.6L347.6,250z M247.6,250L200,297.6v-97.2l49-49l48.6,48.6L247.6,250z M247.6,350
				L199,398.6L150.4,350l48.6-48.6L247.6,350z M198,297.6L150.4,250l-50-50l48.6-48.6l49,49V297.6z M147.6,250L99,298.6L50.4,250
				L99,201.4L147.6,250z M147.6,450L99,498.6L50.4,450L99,401.4L147.6,450z M147.6,650L99,698.6L50.4,650L99,601.4L147.6,650z
				 M147.6,850L99,898.6L50.4,850L99,801.4L147.6,850z M147.6,1050L99,1098.6L50.4,1050l48.6-48.6L147.6,1050z M147.6,1150
				l-47.6,47.6v-97.2l49-49l48.6,48.6L147.6,1150z M199,1198.6l-48.6-48.6l48.6-48.6l48.6,48.6L199,1198.6z M298,1197.6l-47.6-47.6
				l-50-50l48.6-48.6l49,49V1197.6z M250.4,1050l48.6-48.6l48.6,48.6l-48.6,48.6L250.4,1050z M347.6,1150l-47.6,47.6v-97.2l49-49
				l48.6,48.6L347.6,1150z M399,1198.6l-48.6-48.6l48.6-48.6l48.6,48.6L399,1198.6z M498,1197.6l-47.6-47.6l-50-50l48.6-48.6l49,49
				V1197.6z M450.4,1050l48.6-48.6l48.6,48.6l-48.6,48.6L450.4,1050z M547.6,1150l-47.6,47.6v-97.2l49-49l48.6,48.6L547.6,1150z
				 M599,1198.6l-48.6-48.6l48.6-48.6l48.6,48.6L599,1198.6z M698,1197.6l-47.6-47.6l-50-50l48.6-48.6l49,49V1197.6z M650.4,1050
				l48.6-48.6l48.6,48.6l-48.6,48.6L650.4,1050z M747.6,1150l-47.6,47.6v-97.2l49-49l48.6,48.6L747.6,1150z M799,1198.6l-48.6-48.6
				l48.6-48.6l48.6,48.6L799,1198.6z M898,1197.6l-47.6-47.6l-50-50l48.6-48.6l49,49V1197.6z M850.4,1050l48.6-48.6l48.6,48.6
				l-48.6,48.6L850.4,1050z M947.6,1150l-47.6,47.6v-97.2l49-49l48.6,48.6L947.6,1150z M999,1198.6l-48.6-48.6l48.6-48.6l48.6,48.6
				L999,1198.6z M1098,1197.6l-47.6-47.6l-50-50l48.6-48.6l49,49V1197.6z M1050.4,1050l48.6-48.6l48.6,48.6l-48.6,48.6L1050.4,1050z
				 M1147.6,1150l-47.6,47.6v-97.2l49-49l48.6,48.6L1147.6,1150z M1198,1000.4v97.2l-47.6-47.6l-50-50l48.6-48.6L1198,1000.4z
				 M1147.6,950l-47.6,47.6v-97.2l49-49l48.6,48.6L1147.6,950z M1198,800.4v97.2l-47.6-47.6l-50-50l48.6-48.6L1198,800.4z
				 M1147.6,750l-47.6,47.6v-97.2l49-49l48.6,48.6L1147.6,750z M1198,600.4v97.2l-47.6-47.6l-50-50l48.6-48.6L1198,600.4z
				 M1147.6,550l-47.6,47.6v-97.2l49-49l48.6,48.6L1147.6,550z M1198,400.4v97.2l-47.6-47.6l-50-50l48.6-48.6L1198,400.4z
				 M1147.6,350l-47.6,47.6v-97.2l49-49l48.6,48.6L1147.6,350z M1198,200.4v97.2l-47.6-47.6l-50-50l48.6-48.6L1198,200.4z
				 M1197.6,100l-50,50l-47.6,47.6v-97.2l49-49L1197.6,100z M1099,1.4l48.6,48.6L1099,98.6L1050.4,50L1099,1.4z M1049,51.4l49,49
				v97.2l-47.6-47.6l-50-50L1049,51.4z M999,101.4l48.6,48.6L999,198.6L950.4,150L999,101.4z M997.6,100l-50,50L900,197.6v-97.2
				l49-49L997.6,100z M899,1.4L947.6,50L899,98.6L850.4,50L899,1.4z M849,51.4l49,49v97.2L850.4,150l-50-50L849,51.4z M799,101.4
				l48.6,48.6L799,198.6L750.4,150L799,101.4z M797.6,100l-50,50L700,197.6v-97.2l49-49L797.6,100z M699,1.4L747.6,50L699,98.6
				L650.4,50L699,1.4z M649,51.4l49,49v97.2L650.4,150l-50-50L649,51.4z M599,101.4l48.6,48.6L599,198.6L550.4,150L599,101.4z
				 M597.6,100l-50,50L500,197.6v-97.2l49-49L597.6,100z M499,1.4L547.6,50L499,98.6L450.4,50L499,1.4z M449,51.4l49,49v97.2
				L450.4,150l-50-50L449,51.4z M399,101.4l48.6,48.6L399,198.6L350.4,150L399,101.4z M397.6,100l-50,50L300,197.6v-97.2l49-49
				L397.6,100z M299,1.4L347.6,50L299,98.6L250.4,50L299,1.4z M249,51.4l49,49v97.2L250.4,150l-50-50L249,51.4z M199,101.4
				l48.6,48.6L199,198.6L150.4,150L199,101.4z M197.6,100l-50,50L100,197.6v-97.2l49-49L197.6,100z M99,1.4L147.6,50L99,98.6
				L50.4,50L99,1.4z M0.4,100L49,51.4l49,49v97.2L50.4,150L0.4,100z M0,200.4l49-49L97.6,200l-50,50L0,297.6V200.4z M0.4,300
				L49,251.4l49,49v97.2L50.4,350L0.4,300z M0,400.4l49-49L97.6,400l-50,50L0,497.6V400.4z M0.4,500L49,451.4l49,49v97.2L50.4,550
				L0.4,500z M0,600.4l49-49L97.6,600l-50,50L0,697.6V600.4z M0.4,700L49,651.4l49,49v97.2L50.4,750L0.4,700z M0,800.4l49-49
				L97.6,800l-50,50L0,897.6V800.4z M0.4,900L49,851.4l49,49v97.2L50.4,950L0.4,900z M0,1000.4l49-49l48.6,48.6l-50,50L0,1097.6
				V1000.4z M0.4,1100l48.6-48.6l49,49v97.2L50.4,1150L0.4,1100z"/>
			<path style="fill:#9A8FD7;" d="M1199,1200h1.4l48.6-48.6l48.6,48.6h2.8l48.6-48.6l48.6,48.6h2.8l48.6-48.6l48.6,48.6h2.8
				l48.6-48.6l48.6,48.6h2.8l48.6-48.6l48.6,48.6h2.8l48.6-48.6l48.6,48.6h2.8l48.6-48.6l48.6,48.6h2.8l48.6-48.6l48.6,48.6h2.8
				l48.6-48.6l48.6,48.6h2.8l48.6-48.6l48.6,48.6h2.8l48.6-48.6l48.6,48.6h2.8l48.6-48.6l48.6,48.6h1.4v-1.4l-48.6-48.6l48.6-48.6
				V998.6l-48.6-48.6l48.6-48.6V798.6l-48.6-48.6l48.6-48.6V598.6l-48.6-48.6l48.6-48.6V398.6l-48.6-48.6l48.6-48.6V198.6
				l-48.6-48.6l48.6-48.6V0h-1.4l0.4,0.4v97.2L2350.4,50l-50-50h-2.8l-50,50L2200,97.6V0.4l0.4-0.4h-2.8l0.4,0.4v97.2L2150.4,50
				l-50-50h-2.8l-50,50L2000,97.6V0.4l0.4-0.4h-2.8l0.4,0.4v97.2L1950.4,50l-50-50h-2.8l-50,50L1800,97.6V0.4l0.4-0.4h-2.8l0.4,0.4
				v97.2L1750.4,50l-50-50h-2.8l-50,50L1600,97.6V0.4l0.4-0.4h-2.8l0.4,0.4v97.2L1550.4,50l-50-50h-2.8l-50,50L1400,97.6V0.4
				l0.4-0.4h-2.8l0.4,0.4v97.2L1350.4,50l-50-50h-2.8l-50,50L1200,97.6V0.4l0.4-0.4h-1.4v101.4l48.6,48.6l-48.6,48.6v102.8
				l48.6,48.6l-48.6,48.6v102.8l48.6,48.6l-48.6,48.6v102.8l48.6,48.6l-48.6,48.6v102.8l48.6,48.6l-48.6,48.6v102.8l48.6,48.6
				l-48.6,48.6V1200z M1349,351.4l49,49v97.2l-47.6-47.6l-50-50L1349,351.4z M1300,397.6v-97.2l49-49l48.6,48.6l-50,50L1300,397.6z
				 M2297.6,400l-50,50l-47.6,47.6v-97.2l49-49L2297.6,400z M2200.4,300l48.6-48.6l49,49v97.2l-47.6-47.6L2200.4,300z M1497.6,600
				l-50,50l-47.6,47.6v-97.2l49-49L1497.6,600z M1400.4,500l48.6-48.6l49,49v97.2l-47.6-47.6L1400.4,500z M1400,800.4l49-49
				l48.6,48.6l-50,50l-47.6,47.6V800.4z M1399,798.6l-48.6-48.6l48.6-48.6l48.6,48.6L1399,798.6z M1450.4,750l-50-50l48.6-48.6
				l49,49v97.2L1450.4,750z M1450.4,650l48.6-48.6l48.6,48.6l-48.6,48.6L1450.4,650z M1547.6,550l-47.6,47.6v-97.2l49-49l48.6,48.6
				L1547.6,550z M1549,551.4l49,49v97.2l-47.6-47.6l-50-50L1549,551.4z M1500,700.4l49-49l48.6,48.6l-50,50l-47.6,47.6V700.4z
				 M1549,751.4l49,49v97.2l-47.6-47.6l-50-50L1549,751.4z M1550.4,750l48.6-48.6l48.6,48.6l-48.6,48.6L1550.4,750z M1697.6,600
				l-50,50l-47.6,47.6v-97.2l49-49L1697.6,600z M1600.4,500l48.6-48.6l49,49v97.2l-47.6-47.6L1600.4,500z M1600,800.4l49-49
				l48.6,48.6l-50,50l-47.6,47.6V800.4z M1650.4,750l-50-50l48.6-48.6l49,49v97.2L1650.4,750z M1650.4,650l48.6-48.6l48.6,48.6
				l-48.6,48.6L1650.4,650z M1747.6,550l-47.6,47.6v-97.2l49-49l48.6,48.6L1747.6,550z M1749,551.4l49,49v97.2l-47.6-47.6l-50-50
				L1749,551.4z M1700,700.4l49-49l48.6,48.6l-50,50l-47.6,47.6V700.4z M1749,751.4l49,49v97.2l-47.6-47.6l-50-50L1749,751.4z
				 M1750.4,750l48.6-48.6l48.6,48.6l-48.6,48.6L1750.4,750z M1897.6,600l-50,50l-47.6,47.6v-97.2l49-49L1897.6,600z M1800.4,500
				l48.6-48.6l49,49v97.2l-47.6-47.6L1800.4,500z M1800,800.4l49-49l48.6,48.6l-50,50l-47.6,47.6V800.4z M1850.4,750l-50-50
				l48.6-48.6l49,49v97.2L1850.4,750z M1850.4,650l48.6-48.6l48.6,48.6l-48.6,48.6L1850.4,650z M1947.6,550l-47.6,47.6v-97.2l49-49
				l48.6,48.6L1947.6,550z M1949,551.4l49,49v97.2l-47.6-47.6l-50-50L1949,551.4z M1900,700.4l49-49l48.6,48.6l-50,50l-47.6,47.6
				V700.4z M1949,751.4l49,49v97.2l-47.6-47.6l-50-50L1949,751.4z M1950.4,750l48.6-48.6l48.6,48.6l-48.6,48.6L1950.4,750z
				 M2097.6,600l-50,50l-47.6,47.6v-97.2l49-49L2097.6,600z M2000.4,500l48.6-48.6l49,49v97.2l-47.6-47.6L2000.4,500z M2000,800.4
				l49-49l48.6,48.6l-50,50l-47.6,47.6L2000,800.4L2000,800.4z M2050.4,750l-50-50l48.6-48.6l49,49v97.2L2050.4,750z M2050.4,650
				l48.6-48.6l48.6,48.6l-48.6,48.6L2050.4,650z M2147.6,550l-47.6,47.6v-97.2l49-49l48.6,48.6L2147.6,550z M2149,551.4l49,49v97.2
				l-47.6-47.6l-50-50L2149,551.4z M2100,700.4l49-49l48.6,48.6l-50,50l-47.6,47.6V700.4z M2149,751.4l49,49v97.2l-47.6-47.6l-50-50
				L2149,751.4z M2150.4,750l48.6-48.6l48.6,48.6l-48.6,48.6L2150.4,750z M2200,800.4l49-49l48.6,48.6l-50,50l-47.6,47.6V800.4z
				 M2250.4,750l-50-50l48.6-48.6l49,49v97.2L2250.4,750z M2247.6,650l-47.6,47.6v-97.2l49-49l48.6,48.6L2247.6,650z M2250.4,550
				l-50-50l48.6-48.6l49,49v97.2L2250.4,550z M2247.6,550l-48.6,48.6l-48.6-48.6l48.6-48.6L2247.6,550z M2198,497.6l-47.6-47.6
				l-50-50l48.6-48.6l49,49V497.6z M2147.6,350l-47.6,47.6v-97.2l49-49l48.6,48.6L2147.6,350z M2147.6,450l-48.6,48.6l-48.6-48.6
				l48.6-48.6L2147.6,450z M2098,397.6l-47.6-47.6l-50-50l48.6-48.6l49,49V397.6z M2097.6,400l-50,50l-47.6,47.6v-97.2l49-49
				L2097.6,400z M2047.6,550l-48.6,48.6l-48.6-48.6l48.6-48.6L2047.6,550z M1998,497.6l-47.6-47.6l-50-50l48.6-48.6l49,49V497.6z
				 M1947.6,350l-47.6,47.6v-97.2l49-49l48.6,48.6L1947.6,350z M1947.6,450l-48.6,48.6l-48.6-48.6l48.6-48.6L1947.6,450z
				 M1898,397.6l-47.6-47.6l-50-50l48.6-48.6l49,49V397.6z M1897.6,400l-50,50l-47.6,47.6v-97.2l49-49L1897.6,400z M1847.6,550
				l-48.6,48.6l-48.6-48.6l48.6-48.6L1847.6,550z M1798,497.6l-47.6-47.6l-50-50l48.6-48.6l49,49V497.6z M1747.6,350l-47.6,47.6
				v-97.2l49-49l48.6,48.6L1747.6,350z M1747.6,450l-48.6,48.6l-48.6-48.6l48.6-48.6L1747.6,450z M1698,397.6l-47.6-47.6l-50-50
				l48.6-48.6l49,49V397.6z M1697.6,400l-50,50l-47.6,47.6v-97.2l49-49L1697.6,400z M1647.6,550l-48.6,48.6l-48.6-48.6l48.6-48.6
				L1647.6,550z M1598,497.6l-47.6-47.6l-50-50l48.6-48.6l49,49V497.6z M1547.6,350l-47.6,47.6v-97.2l49-49l48.6,48.6L1547.6,350z
				 M1547.6,450l-48.6,48.6l-48.6-48.6l48.6-48.6L1547.6,450z M1498,397.6l-47.6-47.6l-50-50l48.6-48.6l49,49V397.6z M1497.6,400
				l-50,50l-47.6,47.6v-97.2l49-49L1497.6,400z M1447.6,550l-48.6,48.6l-48.6-48.6l48.6-48.6L1447.6,550z M1397.6,500l-50,50
				l-47.6,47.6v-97.2l49-49L1397.6,500z M1349,551.4l49,49v97.2l-47.6-47.6l-50-50L1349,551.4z M1397.6,700l-50,50l-47.6,47.6v-97.2
				l49-49L1397.6,700z M1349,751.4l49,49v97.2l-47.6-47.6l-50-50L1349,751.4z M1397.6,900l-50,50l-47.6,47.6v-97.2l49-49L1397.6,900
				z M1349,951.4l49,49v97.2l-47.6-47.6l-50-50L1349,951.4z M1350.4,950l48.6-48.6l48.6,48.6l-48.6,48.6L1350.4,950z M1400,1000.4
				l49-49l48.6,48.6l-50,50l-47.6,47.6V1000.4z M1450.4,950l-50-50l48.6-48.6l49,49v97.2L1450.4,950z M1450.4,850l48.6-48.6
				l48.6,48.6l-48.6,48.6L1450.4,850z M1500,900.4l49-49l48.6,48.6l-50,50l-47.6,47.6V900.4z M1549,951.4l49,49v97.2l-47.6-47.6
				l-50-50L1549,951.4z M1550.4,950l48.6-48.6l48.6,48.6l-48.6,48.6L1550.4,950z M1600,1000.4l49-49l48.6,48.6l-50,50l-47.6,47.6
				V1000.4z M1650.4,950l-50-50l48.6-48.6l49,49v97.2L1650.4,950z M1650.4,850l48.6-48.6l48.6,48.6l-48.6,48.6L1650.4,850z
				 M1700,900.4l49-49l48.6,48.6l-50,50l-47.6,47.6V900.4z M1749,951.4l49,49v97.2l-47.6-47.6l-50-50L1749,951.4z M1750.4,950
				l48.6-48.6l48.6,48.6l-48.6,48.6L1750.4,950z M1800,1000.4l49-49l48.6,48.6l-50,50l-47.6,47.6V1000.4z M1850.4,950l-50-50
				l48.6-48.6l49,49v97.2L1850.4,950z M1850.4,850l48.6-48.6l48.6,48.6l-48.6,48.6L1850.4,850z M1900,900.4l49-49l48.6,48.6l-50,50
				l-47.6,47.6V900.4z M1949,951.4l49,49v97.2l-47.6-47.6l-50-50L1949,951.4z M1950.4,950l48.6-48.6l48.6,48.6l-48.6,48.6
				L1950.4,950z M2000,1000.4l49-49l48.6,48.6l-50,50l-47.6,47.6L2000,1000.4L2000,1000.4z M2050.4,950l-50-50l48.6-48.6l49,49v97.2
				L2050.4,950z M2050.4,850l48.6-48.6l48.6,48.6l-48.6,48.6L2050.4,850z M2100,900.4l49-49l48.6,48.6l-50,50l-47.6,47.6V900.4z
				 M2149,951.4l49,49v97.2l-47.6-47.6l-50-50L2149,951.4z M2150.4,950l48.6-48.6l48.6,48.6l-48.6,48.6L2150.4,950z M2200,1000.4
				l49-49l48.6,48.6l-50,50l-47.6,47.6V1000.4z M2250.4,950l-50-50l48.6-48.6l49,49v97.2L2250.4,950z M2250.4,850l48.6-48.6
				l48.6,48.6l-48.6,48.6L2250.4,850z M2250.4,650l48.6-48.6l48.6,48.6l-48.6,48.6L2250.4,650z M2250.4,450l48.6-48.6l48.6,48.6
				l-48.6,48.6L2250.4,450z M2250.4,250l48.6-48.6l48.6,48.6l-48.6,48.6L2250.4,250z M2247.6,250l-47.6,47.6v-97.2l49-49l48.6,48.6
				L2247.6,250z M2247.6,350l-48.6,48.6l-48.6-48.6l48.6-48.6L2247.6,350z M2198,297.6l-47.6-47.6l-50-50l48.6-48.6l49,49V297.6z
				 M2147.6,250l-48.6,48.6l-48.6-48.6l48.6-48.6L2147.6,250z M2047.6,250l-47.6,47.6v-97.2l49-49l48.6,48.6L2047.6,250z
				 M2047.6,350l-48.6,48.6l-48.6-48.6l48.6-48.6L2047.6,350z M1998,297.6l-47.6-47.6l-50-50l48.6-48.6l49,49V297.6z M1947.6,250
				l-48.6,48.6l-48.6-48.6l48.6-48.6L1947.6,250z M1847.6,250l-47.6,47.6v-97.2l49-49l48.6,48.6L1847.6,250z M1847.6,350l-48.6,48.6
				l-48.6-48.6l48.6-48.6L1847.6,350z M1798,297.6l-47.6-47.6l-50-50l48.6-48.6l49,49V297.6z M1747.6,250l-48.6,48.6l-48.6-48.6
				l48.6-48.6L1747.6,250z M1647.6,250l-47.6,47.6v-97.2l49-49l48.6,48.6L1647.6,250z M1647.6,350l-48.6,48.6l-48.6-48.6l48.6-48.6
				L1647.6,350z M1598,297.6l-47.6-47.6l-50-50l48.6-48.6l49,49V297.6z M1547.6,250l-48.6,48.6l-48.6-48.6l48.6-48.6L1547.6,250z
				 M1447.6,250l-47.6,47.6v-97.2l49-49l48.6,48.6L1447.6,250z M1447.6,350l-48.6,48.6l-48.6-48.6l48.6-48.6L1447.6,350z
				 M1398,297.6l-47.6-47.6l-50-50l48.6-48.6l49,49V297.6z M1347.6,250l-48.6,48.6l-48.6-48.6l48.6-48.6L1347.6,250z M1347.6,450
				l-48.6,48.6l-48.6-48.6l48.6-48.6L1347.6,450z M1347.6,650l-48.6,48.6l-48.6-48.6l48.6-48.6L1347.6,650z M1347.6,850l-48.6,48.6
				l-48.6-48.6l48.6-48.6L1347.6,850z M1347.6,1050l-48.6,48.6l-48.6-48.6l48.6-48.6L1347.6,1050z M1347.6,1150l-47.6,47.6v-97.2
				l49-49l48.6,48.6L1347.6,1150z M1399,1198.6l-48.6-48.6l48.6-48.6l48.6,48.6L1399,1198.6z M1498,1197.6l-47.6-47.6l-50-50
				l48.6-48.6l49,49V1197.6z M1450.4,1050l48.6-48.6l48.6,48.6l-48.6,48.6L1450.4,1050z M1547.6,1150l-47.6,47.6v-97.2l49-49
				l48.6,48.6L1547.6,1150z M1599,1198.6l-48.6-48.6l48.6-48.6l48.6,48.6L1599,1198.6z M1698,1197.6l-47.6-47.6l-50-50l48.6-48.6
				l49,49V1197.6z M1650.4,1050l48.6-48.6l48.6,48.6l-48.6,48.6L1650.4,1050z M1747.6,1150l-47.6,47.6v-97.2l49-49l48.6,48.6
				L1747.6,1150z M1799,1198.6l-48.6-48.6l48.6-48.6l48.6,48.6L1799,1198.6z M1898,1197.6l-47.6-47.6l-50-50l48.6-48.6l49,49V1197.6
				z M1850.4,1050l48.6-48.6l48.6,48.6l-48.6,48.6L1850.4,1050z M1947.6,1150l-47.6,47.6v-97.2l49-49l48.6,48.6L1947.6,1150z
				 M1999,1198.6l-48.6-48.6l48.6-48.6l48.6,48.6L1999,1198.6z M2098,1197.6l-47.6-47.6l-50-50l48.6-48.6l49,49V1197.6z
				 M2050.4,1050l48.6-48.6l48.6,48.6l-48.6,48.6L2050.4,1050z M2147.6,1150l-47.6,47.6v-97.2l49-49l48.6,48.6L2147.6,1150z
				 M2199,1198.6l-48.6-48.6l48.6-48.6l48.6,48.6L2199,1198.6z M2298,1197.6l-47.6-47.6l-50-50l48.6-48.6l49,49V1197.6z
				 M2250.4,1050l48.6-48.6l48.6,48.6l-48.6,48.6L2250.4,1050z M2347.6,1150l-47.6,47.6v-97.2l49-49l48.6,48.6L2347.6,1150z
				 M2398,1000.4v97.2l-47.6-47.6l-50-50l48.6-48.6L2398,1000.4z M2347.6,950l-47.6,47.6v-97.2l49-49l48.6,48.6L2347.6,950z
				 M2398,800.4v97.2l-47.6-47.6l-50-50l48.6-48.6L2398,800.4z M2347.6,750l-47.6,47.6v-97.2l49-49l48.6,48.6L2347.6,750z
				 M2398,600.4v97.2l-47.6-47.6l-50-50l48.6-48.6L2398,600.4z M2347.6,550l-47.6,47.6v-97.2l49-49l48.6,48.6L2347.6,550z
				 M2398,400.4v97.2l-47.6-47.6l-50-50l48.6-48.6L2398,400.4z M2347.6,350l-47.6,47.6v-97.2l49-49l48.6,48.6L2347.6,350z
				 M2398,200.4v97.2l-47.6-47.6l-50-50l48.6-48.6L2398,200.4z M2397.6,100l-50,50l-47.6,47.6v-97.2l49-49L2397.6,100z M2299,1.4
				l48.6,48.6L2299,98.6L2250.4,50L2299,1.4z M2249,51.4l49,49v97.2l-47.6-47.6l-50-50L2249,51.4z M2199,101.4l48.6,48.6l-48.6,48.6
				l-48.6-48.6L2199,101.4z M2197.6,100l-50,50l-47.6,47.6v-97.2l49-49L2197.6,100z M2099,1.4l48.6,48.6L2099,98.6L2050.4,50
				L2099,1.4z M2049,51.4l49,49v97.2l-47.6-47.6l-50-50L2049,51.4z M1999,101.4l48.6,48.6l-48.6,48.6l-48.6-48.6L1999,101.4z
				 M1997.6,100l-50,50l-47.6,47.6v-97.2l49-49L1997.6,100z M1899,1.4l48.6,48.6L1899,98.6L1850.4,50L1899,1.4z M1849,51.4l49,49
				v97.2l-47.6-47.6l-50-50L1849,51.4z M1799,101.4l48.6,48.6l-48.6,48.6l-48.6-48.6L1799,101.4z M1797.6,100l-50,50l-47.6,47.6
				v-97.2l49-49L1797.6,100z M1699,1.4l48.6,48.6L1699,98.6L1650.4,50L1699,1.4z M1649,51.4l49,49v97.2l-47.6-47.6l-50-50L1649,51.4
				z M1599,101.4l48.6,48.6l-48.6,48.6l-48.6-48.6L1599,101.4z M1597.6,100l-50,50l-47.6,47.6v-97.2l49-49L1597.6,100z M1499,1.4
				l48.6,48.6L1499,98.6L1450.4,50L1499,1.4z M1449,51.4l49,49v97.2l-47.6-47.6l-50-50L1449,51.4z M1399,101.4l48.6,48.6l-48.6,48.6
				l-48.6-48.6L1399,101.4z M1397.6,100l-50,50l-47.6,47.6v-97.2l49-49L1397.6,100z M1299,1.4l48.6,48.6L1299,98.6L1250.4,50
				L1299,1.4z M1200.4,100l48.6-48.6l49,49v97.2l-47.6-47.6L1200.4,100z M1200,200.4l49-49l48.6,48.6l-50,50l-47.6,47.6V200.4z
				 M1200.4,300l48.6-48.6l49,49v97.2l-47.6-47.6L1200.4,300z M1200,400.4l49-49l48.6,48.6l-50,50l-47.6,47.6V400.4z M1200.4,500
				l48.6-48.6l49,49v97.2l-47.6-47.6L1200.4,500z M1200,600.4l49-49l48.6,48.6l-50,50l-47.6,47.6V600.4z M1200.4,700l48.6-48.6
				l49,49v97.2l-47.6-47.6L1200.4,700z M1200,800.4l49-49l48.6,48.6l-50,50l-47.6,47.6V800.4z M1200.4,900l48.6-48.6l49,49v97.2
				l-47.6-47.6L1200.4,900z M1200,1000.4l49-49l48.6,48.6l-50,50l-47.6,47.6V1000.4z M1200.4,1100l48.6-48.6l49,49v97.2l-47.6-47.6
				L1200.4,1100z"/>
		</g>
	</g>
</g>
<g id="Ñëîé_3">
</g>
</svg>
